<?xml version="1.0" encoding="UTF-8" standalone="no"?>
<svg
   width="121.38172pt"
   height="36.75pt"
   viewBox="0 0 121.38172 36.75"
   version="1.1"
   id="svg61"
   xmlns="http://www.w3.org/2000/svg"
   xmlns:svg="http://www.w3.org/2000/svg">
  <defs
     id="defs65" />
  <g
     id="g379"
     transform="matrix(0.07624481,0,0,0.07624481,-1.9074606e-5,-7.0476928e-6)">
    <g
       id="#1d70b8ff">
      <path
         fill="#1d70b8"
         opacity="1"
         d="m 196.84,0 h 3.7 c 15.11,0.8 29.87,7.1 40.65,17.76 18.01,17.97 35.99,35.97 53.97,53.97 143.9,-21.37 287.79,-42.85 431.68,-64.29 6.96,-1 13.96,-2.46 21.03,-1.76 13.28,1.01 25.96,7.68 34.44,17.94 8.43,10 12.74,23.37 11.6,36.42 -0.52,7.63 -3.37,14.81 -5.92,21.94 -14.01,38.06 -35.62,73.21 -62.61,103.44 -43.12,48.36 -99.61,83.43 -159.91,106.28 -70.29,26.66 -145.47,38.1 -220.31,41.51 20.35,17.36 47.62,23.85 73.82,24.66 46.45,1.07 92.79,-9.3 135.37,-27.63 23.8,-10.29 46.49,-23.14 67.51,-38.33 5.14,-3.89 11.77,-5.81 18.18,-4.75 7.58,1.1 14.45,6.16 17.69,13.1 3.68,7.45 2.92,16.81 -1.83,23.6 -2.13,3.18 -5.2,5.53 -8.3,7.68 -20.14,14.36 -41.61,26.85 -64.05,37.25 11.56,4.92 20.11,15.73 22.68,27.97 5.39,24.32 -9.49,50.88 -32.49,59.95 -10.66,4.33 -23.23,4.59 -33.63,-0.64 -9.96,-4.86 -17.26,-14.39 -20.01,-25.06 -3.75,-13.85 -0.54,-28.89 7,-40.91 -22.2,6.53 -45,11.02 -68.02,13.32 6.42,9.14 9.01,20.67 7.5,31.7 -2.81,23.78 -22.84,45.08 -47.14,46.88 h -4.94 c -7.48,-0.59 -14.9,-3.06 -20.84,-7.73 -9.09,-6.87 -14.44,-17.93 -15.33,-29.18 -1.39,-15.51 4.92,-31.18 15.81,-42.16 -16.35,-2.36 -32.52,-6.54 -47.57,-13.44 -25.4,-11.4 -46.99,-30.97 -60.83,-55.13 -17.02,-29.63 -23.81,-64.43 -22.42,-98.37 0.03,-43.1 -0.03,-86.2 0.03,-129.31 -17.94,-18.06 -35.98,-36.02 -53.96,-54.04 -3.14,-3.25 -7.59,-5.91 -12.27,-5.12 -17.42,2.65 -34.83,5.37 -52.26,7.91 -9.53,1.35 -19.47,-3.92 -23.8,-12.49 -3.79,-7.14 -3.52,-16.24 0.75,-23.12 3.49,-5.8 9.58,-9.96 16.28,-11 19.56,-3.04 39.2,-5.67 58.75,-8.82 m 387.72,76.3 c -0.13,22.31 -0.03,44.63 -0.05,66.95 42.48,-6.24 84.94,-12.69 127.43,-18.93 1.02,-0.25 2.4,-0.19 2.94,-1.32 13.5,-20.46 24.29,-42.73 31.84,-66.05 0.86,-2.14 -1.35,-4.71 -3.58,-4.2 C 690.27,60.53 637.44,68.6 584.56,76.3 M 438.24,98.16 c 0.02,22.29 0,44.58 0.01,66.87 38.28,-5.64 76.54,-11.36 114.81,-17.09 0,-22.3 0,-44.6 0,-66.9 -38.27,5.74 -76.55,11.42 -114.82,17.12 m -127.76,19.03 c 0,22.29 -0.03,44.58 -0.04,66.87 32.13,-4.72 64.25,-9.54 96.37,-14.34 -0.01,-22.3 0,-44.59 -0.01,-66.89 -32.1,4.79 -64.21,9.62 -96.32,14.36 m 274.24,57.94 c 0.01,18.69 -0.01,37.38 0.01,56.07 37.15,-17.74 71.77,-41.22 100.38,-70.95 -33.47,4.91 -66.91,10.03 -100.39,14.88 m -146.29,21.9 c -0.03,26.14 0.01,52.28 -0.02,78.43 39.06,-6.5 77.58,-16.54 114.6,-30.64 -0.01,-21.66 0.02,-43.32 -0.02,-64.98 -38.16,5.88 -76.39,11.35 -114.56,17.19 m -127.78,19.02 c 0,10.65 0.01,21.3 -0.12,31.94 0.06,13.07 2.45,25.97 5.69,38.59 30.23,-0.43 60.45,-2.48 90.43,-6.41 0.02,-26.15 0.02,-52.31 0,-78.46 -32,4.81 -64.01,9.5 -96,14.34 z"
         id="path2" />
      <path
         fill="#1d70b8"
         opacity="1"
         d="m 213.04,119.09 c 8.13,-0.88 16.08,5.7 16.87,13.8 1.17,8.17 -5.19,16.42 -13.36,17.42 -32.83,4.96 -65.67,9.81 -98.51,14.69 -5.92,1.11 -12.33,-1.38 -15.79,-6.34 -3.73,-5.09 -3.94,-12.43 -0.38,-17.67 2.48,-3.79 6.61,-6.51 11.14,-7.02 33.34,-4.98 66.68,-9.97 100.03,-14.88 z"
         id="path4" />
      <path
         fill="#1d70b8"
         opacity="1"
         d="m 205.97,187.93 c 4.63,-0.66 9.57,-1.96 14.06,0.04 7.01,2.63 11.4,10.67 9.62,18 -1.4,6.63 -7.41,11.8 -14.15,12.36 C 149.71,228.12 83.93,237.98 18.13,247.69 9.43,249.27 0.81,242.31 0,233.61 v -3.07 c 0.88,-6.78 6.26,-12.86 13.14,-13.85 64.27,-9.62 128.56,-19.13 192.83,-28.76 z"
         id="path6" />
      <path
         fill="#1d70b8"
         opacity="1"
         d="m 206.52,255.68 c 4.76,-0.78 9.92,-1.89 14.42,0.52 7.77,3.39 11.46,13.59 7.46,21.12 -2.33,4.77 -7.15,8.18 -12.43,8.78 -55.29,8.22 -110.58,16.51 -165.88,24.68 -6.3,1.17 -13.12,-1.89 -16.33,-7.44 -5.97,-9.05 0.61,-22.52 11.31,-23.59 53.82,-8.04 107.64,-16 161.45,-24.07 z"
         id="path8" />
      <path
         fill="#1d70b8"
         opacity="1"
         d="m 1485.26,380.32 c 3.85,-0.53 7.76,-0.51 11.64,-0.01 0.45,3.55 0.42,7.14 0.03,10.7 -3.9,0.45 -7.83,0.47 -11.7,-0.02 -0.48,-3.55 -0.49,-7.13 0.03,-10.67 z"
         id="path10" />
      <path
         fill="#1d70b8"
         opacity="1"
         d="m 815.36,383.34 c 8.27,-4 18.01,-2.49 26.41,0.35 -0.52,3.08 -1.31,6.11 -2.53,9 -5.13,-2.04 -10.93,-3.2 -16.36,-1.79 -4.36,1.31 -4.89,8.12 -1.07,10.37 5.62,3.21 12.44,4.19 17.48,8.46 4.74,4.27 5.34,11.47 3.8,17.32 -1.72,6.41 -7.72,10.75 -14,12.03 -7.78,1.54 -15.99,0.75 -23.36,-2.15 0.49,-3.35 1.38,-6.61 2.43,-9.82 6.02,2.3 13.01,3.92 19.22,1.41 4.84,-1.79 5.39,-9.27 1.1,-11.96 -5.86,-3.64 -13.66,-4.14 -18.31,-9.68 -5.36,-7.28 -3.24,-19.48 5.19,-23.54 z"
         id="path12" />
      <path
         fill="#1d70b8"
         opacity="1"
         d="m 1269.46,397.65 c 0.04,-5.63 -0.15,-11.26 0.1,-16.88 3.68,-0.27 7.4,-0.37 11.08,0.14 -0.04,18.88 0,37.77 -0.02,56.65 -7.29,2.05 -15.03,2.92 -22.54,1.72 -6.15,-1.03 -11.83,-5.19 -13.97,-11.15 -3.28,-9.04 -1.53,-20.63 6.39,-26.74 5.27,-4.28 12.48,-4.96 18.96,-3.74 m -10.25,9.55 c -3.9,2.5 -5.09,7.45 -5.05,11.81 -0.01,3.59 0.88,7.67 4.02,9.85 3.3,2.21 7.53,1.81 11.27,1.17 -0.01,-7.92 0.01,-15.84 -0.01,-23.76 -3.38,-0.49 -7.25,-1.17 -10.23,0.93 z"
         id="path14" />
      <path
         fill="#1d70b8"
         opacity="1"
         d="m 1371.46,381.64 c 8.05,-1.72 17.43,-0.58 23.5,5.45 6.72,6.72 8.23,16.86 7.87,25.97 -0.36,8.82 -3.44,18.55 -11.39,23.37 -10.56,6.15 -26.5,4.27 -33.24,-6.66 -5.52,-9.17 -5.75,-20.71 -3.34,-30.89 1.9,-8.19 8.16,-15.52 16.6,-17.24 m 3.67,9.54 c -3.4,0.74 -6.04,3.45 -7.28,6.62 -1.94,4.79 -2.15,10.08 -1.97,15.19 0.25,4.38 0.83,9.02 3.34,12.75 3.84,5.84 13.69,5.96 17.67,0.21 2.97,-4.35 3.4,-9.85 3.54,-14.96 -0.04,-5.45 -0.39,-11.27 -3.44,-15.96 -2.52,-3.83 -7.64,-4.88 -11.86,-3.85 z"
         id="path16" />
      <path
         fill="#1d70b8"
         opacity="1"
         d="m 1458.73,380.86 c 3.71,-0.5 7.46,-0.5 11.18,0.01 0.01,14.05 -0.02,28.1 0.01,42.16 0.13,2.16 -0.02,4.74 1.67,6.39 1.8,1.39 4.24,0.7 6.35,0.72 0.57,2.81 0.78,5.68 0.76,8.56 -5.33,0.99 -11.59,1.29 -15.96,-2.46 -3.58,-2.93 -3.96,-7.93 -4.01,-12.21 0,-14.39 0,-28.78 0,-43.17 z"
         id="path18" />
      <path
         fill="#1d70b8"
         opacity="1"
         d="m 912.64,398.71 c 6.06,-3.48 14.54,-1.68 18.72,3.91 3.92,5.17 4.57,12.04 4.06,18.31 -0.51,5.93 -3.35,11.89 -8.44,15.19 -5.37,3.65 -12.16,4.15 -18.43,3.41 0,6.06 -0.01,12.13 0,18.2 -3.74,0.43 -7.51,0.43 -11.25,0.01 -0.05,-19.97 0.08,-39.93 -0.06,-59.9 2.92,-0.48 5.95,-0.64 8.87,0.01 1.29,1.35 1.04,3.6 1.62,5.33 1.58,-1.54 2.94,-3.39 4.91,-4.47 m -1.35,9.5 c -2.15,1.94 -2.66,4.99 -2.72,7.75 -0.08,4.76 0.01,9.52 -0.02,14.29 3.54,0.6 7.54,1.09 10.69,-1.05 3.28,-2.23 4.22,-6.46 4.34,-10.19 0.05,-3.27 -0.09,-6.84 -2.05,-9.6 -2.2,-3.24 -7.33,-3.72 -10.24,-1.2 z"
         id="path20" />
      <path
         fill="#1d70b8"
         opacity="1"
         d="m 946.85,403.83 c 4.86,-6.34 13.89,-8.29 21.31,-5.97 4.86,1.58 8.84,5.52 10.51,10.35 1.66,4.35 1.54,9.09 1.08,13.64 -8.83,0.04 -17.66,-0.01 -26.49,0.03 0.43,2.9 1.52,6.08 4.39,7.43 5.65,2.88 12.24,1.22 18.05,-0.31 1.07,2.71 1.75,5.55 2.1,8.46 -6.93,2.39 -14.58,3.18 -21.76,1.46 -5.91,-1.41 -10.93,-6 -12.58,-11.88 -2.22,-7.68 -1.58,-16.7 3.39,-23.21 m 10.67,2.65 c -2.78,1.45 -3.63,4.66 -4.19,7.5 5.41,0.03 10.82,0.03 16.24,0 -0.46,-2.17 -0.73,-4.52 -2.3,-6.2 -2.35,-2.78 -6.7,-2.79 -9.75,-1.3 z"
         id="path22" />
      <path
         fill="#1d70b8"
         opacity="1"
         d="m 1031.28,403.43 c 4.75,-8.7 19.75,-8.89 23.68,0.6 2.09,-3.15 5,-6.17 8.9,-6.81 4.6,-0.7 10.12,-0.08 13.29,3.72 2.64,3.38 3.05,7.88 3.15,12.02 0.04,8.66 0,17.32 0.02,25.99 -3.74,0.49 -7.52,0.48 -11.25,0 -0.05,-7.99 0.04,-15.98 -0.04,-23.97 -0.2,-2.55 -0.16,-5.79 -2.48,-7.43 -2.91,-1.48 -7.03,-0.64 -8.75,2.25 -1.54,2.46 -1.57,5.45 -1.6,8.26 0,6.96 0.01,13.92 0.01,20.89 -3.75,0.48 -7.53,0.49 -11.26,0 -0.04,-7.97 0.05,-15.94 -0.03,-23.91 -0.2,-2.55 -0.13,-5.75 -2.39,-7.44 -2.88,-1.53 -7.08,-0.76 -8.78,2.16 -1.69,2.77 -1.61,6.14 -1.66,9.27 0.01,6.64 0.01,13.27 0.01,19.91 -3.74,0.5 -7.53,0.5 -11.26,0 -0.01,-13.71 0,-27.41 0,-41.12 3.08,-0.48 6.21,-0.47 9.31,-0.01 0.42,1.86 0.79,3.73 1.13,5.62 z"
         id="path24" />
      <path
         fill="#1d70b8"
         opacity="1"
         d="m 1092.44,404.58 c 6.43,-9.39 22.09,-10.47 29.41,-1.6 4.36,5.19 4.83,12.4 4.05,18.87 -8.83,0.04 -17.67,-0.02 -26.49,0.03 0.45,2.89 1.5,6.06 4.36,7.41 5.63,2.86 12.24,1.34 18,-0.34 1.14,2.73 1.92,5.59 2.13,8.55 -7.02,2.35 -14.76,3.2 -21.98,1.33 -5.78,-1.44 -10.66,-5.98 -12.29,-11.74 -2.16,-7.41 -1.64,-16.01 2.81,-22.51 m 11.08,1.99 c -2.68,1.48 -3.49,4.63 -4.04,7.41 5.41,0.03 10.82,0.03 16.23,0 -0.44,-1.96 -0.63,-4.08 -1.89,-5.71 -2.24,-3.26 -7.07,-3.42 -10.3,-1.7 z"
         id="path26" />
      <path
         fill="#1d70b8"
         opacity="1"
         d="m 1170.9,400.88 c 6.85,-5.28 16.48,-4.7 24.24,-1.9 -0.26,2.87 -0.84,5.72 -1.98,8.38 -4.21,-1.15 -8.98,-2.17 -13.11,-0.24 -3.92,2 -5.09,6.8 -5.11,10.86 -0.1,4.14 0.72,9.13 4.66,11.39 4.26,2.32 9.44,1.37 13.83,-0.11 1.36,2.69 2.02,5.65 2.16,8.66 -6.61,2.24 -14.11,2.84 -20.71,0.3 -6.27,-2.44 -10.24,-8.78 -11.03,-15.29 -1.18,-7.83 0.52,-16.93 7.05,-22.05 z"
         id="path28" />
      <path
         fill="#1d70b8"
         opacity="1"
         d="m 1203.82,399.19 c 6.37,-1.89 13.2,-3.06 19.79,-1.52 3.76,0.85 7.42,3.04 9.26,6.54 2.12,3.89 2.01,8.46 2.01,12.77 -0.07,6.83 0.08,13.67 -0.08,20.5 -8.61,2.3 -18.12,3.73 -26.66,0.48 -8.38,-3.26 -9.82,-16.23 -2.71,-21.5 5.33,-3.98 12.32,-4.02 18.67,-3.63 -0.18,-2.46 -0.77,-5.48 -3.49,-6.3 -4.81,-1.4 -9.93,-0.53 -14.61,0.93 -1.32,-2.58 -2.09,-5.38 -2.18,-8.27 m 10.3,21.7 c -3.46,1.63 -3.62,7.48 -0.17,9.22 3.08,1.54 6.66,0.9 9.96,0.55 0.03,-3.55 0.02,-7.1 0.01,-10.64 -3.26,-0.29 -6.8,-0.74 -9.8,0.87 z"
         id="path30" />
      <path
         fill="#1d70b8"
         opacity="1"
         d="m 1302.52,397.75 c 6.92,-1.81 15.14,-0.81 20.36,4.46 5.26,5.38 6.34,13.53 5.4,20.71 -0.73,6.3 -4.35,12.54 -10.34,15.12 -7.74,3.23 -18.04,2.42 -23.76,-4.24 -5.21,-6.25 -5.94,-15.21 -4.01,-22.86 1.46,-6.15 6.15,-11.55 12.35,-13.19 m 2.8,8.73 c -4.91,2.82 -4.78,9.44 -4.62,14.41 0.09,4.38 2.07,10.21 7.32,10.33 4.02,0.68 7.72,-2.32 8.41,-6.22 1.07,-5.07 1.23,-10.67 -0.94,-15.47 -1.72,-3.75 -6.69,-4.62 -10.17,-3.05 z"
         id="path32" />
      <path
         fill="#1d70b8"
         opacity="1"
         d="m 1422.99,403.52 c 4.21,-6.88 14.01,-8.51 20.61,-4.24 4.07,2.77 5.06,8.04 5.17,12.65 0.11,9 0.01,18.01 0.05,27.01 -3.75,0.49 -7.53,0.49 -11.25,0.02 -0.06,-8.02 0.05,-16.04 -0.05,-24.05 -0.13,-2.68 -0.47,-6.02 -3.06,-7.47 -2.93,-1.25 -6.91,-0.55 -8.77,2.17 -1.93,2.74 -1.9,6.22 -1.94,9.43 0.01,6.63 0,13.26 0.01,19.9 -3.74,0.5 -7.52,0.49 -11.25,0.02 -0.03,-13.72 -0.01,-27.44 -0.01,-41.16 3.09,-0.46 6.23,-0.46 9.33,0.03 0.44,1.88 0.8,3.77 1.16,5.69 z"
         id="path34" />
      <path
         fill="#1d70b8"
         opacity="1"
         d="m 1519.59,403.5 c 4.27,-6.97 14.31,-8.54 20.88,-4.01 3.9,2.86 4.77,8.04 4.9,12.57 0.09,8.96 0.01,17.93 0.03,26.89 -3.75,0.48 -7.52,0.49 -11.25,-0.01 -0.04,-7.97 0.05,-15.94 -0.03,-23.91 -0.16,-2.6 -0.39,-5.77 -2.74,-7.39 -3.1,-1.65 -7.6,-0.74 -9.39,2.42 -1.63,2.65 -1.64,5.89 -1.65,8.91 0,6.66 0.01,13.32 0,19.98 -3.74,0.48 -7.52,0.48 -11.25,0 -0.01,-13.71 0,-27.42 0,-41.13 3.04,-0.47 6.12,-0.44 9.19,-0.09 0.53,1.9 0.95,3.82 1.31,5.77 z"
         id="path36" />
      <path
         fill="#1d70b8"
         opacity="1"
         d="m 1557.54,404.57 c 6.42,-9.37 22.02,-10.45 29.36,-1.64 4.39,5.2 4.89,12.44 4.07,18.93 -8.83,0.02 -17.65,-0.02 -26.47,0.02 0.44,2.86 1.47,6 4.27,7.37 5.63,2.92 12.3,1.4 18.08,-0.31 1.16,2.74 1.96,5.63 2.08,8.62 -7.05,2.25 -14.77,3.16 -22,1.25 -5.71,-1.46 -10.54,-5.94 -12.19,-11.62 -2.19,-7.44 -1.68,-16.1 2.8,-22.62 m 10.98,2.05 c -2.61,1.51 -3.42,4.61 -3.95,7.36 5.41,0.03 10.82,0.03 16.23,0 -0.45,-1.99 -0.65,-4.15 -1.96,-5.79 -2.29,-3.21 -7.12,-3.33 -10.32,-1.57 z"
         id="path38" />
      <path
         fill="#1d70b8"
         opacity="1"
         d="m 851.41,397.95 c 3.74,-0.71 7.55,-0.6 11.31,-0.1 0.01,7.38 -0.04,14.76 0.01,22.14 0.1,3.22 0.28,7.1 3.12,9.21 3.03,2 6.88,1.29 10.28,0.9 -0.01,-10.76 -0.01,-21.51 -0.01,-32.26 3.71,-0.51 7.46,-0.51 11.18,0 0.01,13.16 -0.01,26.32 0.01,39.48 -8.34,2.55 -17.47,3.55 -25.95,1.16 -6.3,-1.96 -9.47,-8.72 -9.75,-14.9 -0.37,-8.54 -0.01,-17.09 -0.2,-25.63 z"
         id="path40" />
      <path
         fill="#1d70b8"
         opacity="1"
         d="m 988.96,397.82 c 3.08,-0.5 6.2,-0.43 9.29,0.06 0.46,1.92 0.86,3.86 1.21,5.82 3.06,-4.6 8.4,-7.33 13.95,-6.11 0.33,3.25 0.42,6.57 -0.22,9.8 -3.09,0.39 -6.59,-0.37 -9.21,1.68 -2.75,2.07 -3.63,5.67 -3.69,8.95 -0.17,7 -0.03,14 -0.07,21 -3.74,0.43 -7.52,0.42 -11.26,0 0,-13.74 0,-27.47 0,-41.2 z"
         id="path42" />
      <path
         fill="#1d70b8"
         opacity="1"
         d="m 1135.11,397.82 c 2.99,-0.4 6.07,-0.63 9.04,0.13 1.09,1.67 0.99,3.84 1.45,5.76 1.81,-2.16 3.72,-4.44 6.4,-5.55 2.37,-0.99 5,-0.68 7.52,-0.61 0.49,3.32 0.31,6.69 -0.16,10.01 -3.32,-0.02 -7.2,-0.5 -9.81,1.98 -2.6,2.42 -3.12,6.14 -3.15,9.52 -0.08,6.65 0,13.31 -0.03,19.96 -3.75,0.42 -7.52,0.42 -11.26,-0.01 0.01,-13.73 0,-27.46 0,-41.19 z"
         id="path44" />
      <path
         fill="#1d70b8"
         opacity="1"
         d="m 1481.59,406.47 c -0.47,-2.85 -0.48,-5.75 -0.01,-8.6 5.46,0 10.93,-0.01 16.4,0 0,13.69 0.01,27.39 -0.01,41.08 -3.66,0.48 -7.36,0.49 -11.01,0 -0.02,-10.84 0.03,-21.67 -0.02,-32.5 -1.8,0 -3.59,0.01 -5.35,0.02 z"
         id="path46" />
    </g>
    <g
       id="#e94e1bff">
      <path
         fill="#e94e1b"
         opacity="1"
         d="m 1372.55,33.64 c 5.66,-5.73 13.49,-8.99 21.46,-9.63 8.86,-0.6 17.66,2.81 24.5,8.32 4.46,3.64 8.21,8.76 8.6,14.67 0.29,3.26 -1.32,6.27 -3.36,8.68 -14.74,17.26 -27.44,36.11 -40.11,54.9 -23.2,35.13 -45.02,71.25 -63.89,108.91 -7.92,16.07 -15.49,32.4 -20.93,49.5 -2.11,7.31 -4.3,14.97 -3.18,22.64 0.46,3.28 4.42,4.49 7.22,3.43 5.39,-1.72 9.91,-5.34 14.19,-8.92 7.5,-6.56 14.22,-13.96 20.62,-21.58 13.78,-16.43 26.57,-33.69 38.49,-51.53 4.09,-5.95 7.19,-12.52 11.33,-18.45 17.27,-25.94 41.68,-47.74 70.93,-59.12 20.3,-8.22 42.99,-9.85 64.45,-5.9 8.71,1.88 17.9,4.68 24.16,11.39 7.17,7.76 9.35,18.78 9.3,29.04 -0.12,19.19 -6.66,37.63 -14.36,54.98 8.34,-2.17 15.46,-7.5 21.05,-13.93 4.48,-4.84 7.44,-11.13 13.1,-14.83 3.13,-2.23 7.43,-3.38 11.07,-1.66 2.94,1.38 4.4,4.58 4.81,7.65 v 2.46 c -1.51,8.74 -6.68,16.24 -12.29,22.88 -12.95,14.94 -32.88,23.14 -52.51,22.95 -13.55,19.6 -29.8,37.81 -50.06,50.65 -13.83,8.66 -29.55,15.19 -46.07,15.55 -14.26,0.21 -28.74,-1.51 -42.08,-6.72 -7.19,-2.78 -13.88,-7.3 -18.27,-13.72 -4.52,-6.46 -6.4,-14.31 -7.42,-22 -13.9,17.89 -29.13,35.4 -48.52,47.52 -14.84,9.4 -34.51,11.79 -50.54,4.03 -11.49,-5.26 -19.47,-16.48 -22.35,-28.59 -2.03,-8.41 -1.12,-17.15 0.36,-25.56 -18.29,16.77 -39.59,30.5 -63.07,38.72 -18.61,6.41 -38.71,9.75 -58.28,6.44 -15.66,-2.64 -30.77,-10.55 -40.67,-23.14 -9.47,-11.82 -13.24,-27.68 -11.36,-42.6 1.9,-15.9 8.74,-30.75 16.89,-44.36 13.92,-22.33 32.51,-41.84 54.34,-56.57 17,-11.17 36.34,-19.95 56.89,-21.1 10.25,-0.4 20.92,0.34 30.31,4.79 10.04,4.83 17.48,14.98 18.55,26.13 1.05,10.24 -1.91,20.46 -6.23,29.66 -7.32,15.34 -18.22,28.86 -31.12,39.87 -10.52,8.76 -22.32,16.36 -35.45,20.52 -14.38,4.51 -30.57,4.02 -44.11,-2.91 -2.16,9.33 -3.12,20.11 2.36,28.51 4.18,6.49 12.48,8.17 19.68,8.19 13.55,-0.1 26.69,-4.45 38.93,-9.98 30.92,-14.61 56.99,-38.81 75.2,-67.63 21.14,-45.24 45.84,-88.83 73.78,-130.21 10.35,-14.75 20.73,-29.69 33.66,-42.34 m 115,118.67 c -7.24,2.35 -12.76,7.91 -17.92,13.25 -12.15,13.26 -21.35,28.92 -29.36,44.94 -8,16.26 -14.81,33.24 -18.53,51.02 -1.25,6.7 -2.37,13.63 -1.27,20.42 0.39,2.25 1.73,5.12 4.43,4.96 9.59,-0.17 17.56,-6.57 24.07,-13 11.68,-12.18 20.57,-26.74 28.18,-41.72 -7.02,-7.98 -8.54,-18.95 -8.63,-29.19 -0.34,-18.53 12.43,-36.55 30.13,-42.18 -0.43,-3.18 -0.66,-7.2 -3.76,-9.01 -2.41,-0.78 -4.99,-0.11 -7.34,0.51 m -298.76,7.53 c -8.17,5.63 -15.21,12.73 -21.76,20.14 -11.21,12.97 -21,27.22 -28.67,42.56 10.39,-0.27 19.82,-5.32 28.24,-11.01 13.33,-9.02 25.03,-20.52 34.15,-33.79 3.24,-5.06 6.71,-10.5 6.88,-16.7 0.15,-3.51 -3.24,-6.32 -6.61,-6.13 -4.51,0.16 -8.56,2.5 -12.23,4.93 z"
         id="path49" />
      <path
         fill="#e94e1b"
         opacity="1"
         d="m 945.51,35.24 c 14.94,-1.79 30.97,-1.48 44.54,5.77 6.85,3.51 12.58,9.41 15.1,16.76 3.84,10.81 2.21,22.68 -1.35,33.33 -4.62,14.66 -13.18,27.55 -20.64,40.85 -7.22,12.84 -14.27,25.79 -21.09,38.85 33.58,-26.97 67.93,-53.01 100.6,-81.1 15,-12.7 30.04,-26.54 38.38,-44.71 1.47,-3.19 4.13,-6.21 7.79,-6.72 5.58,-0.85 10.64,2.7 14.3,6.56 7.19,7.98 11.27,18.54 11.9,29.22 1.35,16.58 -5.55,33.2 -17.13,44.95 -16.82,17.62 -39.09,28.3 -60.35,39.5 -22.41,11.43 -45.45,21.62 -67.47,33.84 12.68,27.38 27.03,54.17 45.34,78.25 7.79,10.09 16.29,19.94 27.05,26.95 4.39,2.95 9.46,4.69 14.64,5.64 3.54,0.56 4.73,4.62 4.27,7.72 -0.98,8.56 -5.65,16.11 -10.35,23.12 -7.26,10.09 -16.33,19.57 -27.98,24.44 -7.98,3.41 -16.48,-0.95 -22.89,-5.66 -9.38,-7.34 -16.59,-17.06 -22.68,-27.2 -10.05,-16.95 -16.87,-35.55 -22.98,-54.21 -6.28,-20.31 -11.88,-40.95 -14.56,-62.08 -8.72,5.07 -17.21,10.53 -25.47,16.28 -6.47,13.27 -12.09,26.99 -17.09,40.89 -3.23,9.89 -6.47,20.01 -6.74,30.5 -0.4,4.91 3.9,9.14 2.41,14.08 -1.49,5.15 -6.71,7.86 -11.44,9.4 -11.86,3.71 -25.06,2.49 -36.3,-2.69 -6.67,-3.15 -12.52,-9.93 -11.5,-17.73 1.35,-14.87 6.61,-29.03 11.64,-42.98 21.82,-56.79 48.66,-111.53 77.45,-165.09 3.5,-6.88 6.91,-14.16 7.32,-21.99 0.28,-2.93 -1.44,-6.01 -4.4,-6.74 -5.35,-1.28 -10.89,0.11 -16.09,1.45 -16.49,4.85 -32.41,12.35 -45.69,23.37 -10.88,8.93 -20.26,20.39 -24.29,34.07 -3.41,11.06 -2.5,23.56 3.41,33.63 2.14,3.96 5.91,7.51 5.62,12.37 -0.38,5.57 -5.16,9.53 -9.82,11.87 -12.1,5.84 -26.95,5.12 -38.73,-1.2 -5.99,-3.35 -10.07,-9.24 -12.88,-15.34 -3.67,-11.26 -0.31,-23.3 4.23,-33.77 6.94,-15.91 17.83,-29.8 30.01,-42.02 14.3,-13.86 30.56,-25.82 48.44,-34.63 17.53,-8.45 36.04,-15.49 55.47,-17.8 z"
         id="path51" />
    </g>
    <g
       id="#fcea12ff">
      <path
         fill="#fcea12"
         opacity="1"
         d="m 584.72,175.13 c 33.48,-4.85 66.92,-9.97 100.39,-14.88 -28.61,29.73 -63.23,53.21 -100.38,70.95 -0.02,-18.69 0,-37.38 -0.01,-56.07 z"
         id="path54" />
      <path
         fill="#fcea12"
         opacity="1"
         d="m 438.43,197.03 c 38.17,-5.84 76.4,-11.31 114.56,-17.19 0.04,21.66 0.01,43.32 0.02,64.98 -37.02,14.1 -75.54,24.14 -114.6,30.64 0.03,-26.15 -0.01,-52.29 0.02,-78.43 z"
         id="path56" />
      <path
         fill="#fcea12"
         opacity="1"
         d="m 310.65,216.05 c 31.99,-4.84 64,-9.53 96,-14.34 0.02,26.15 0.02,52.31 0,78.46 -29.98,3.93 -60.2,5.98 -90.43,6.41 -3.24,-12.62 -5.63,-25.52 -5.69,-38.59 0.13,-10.64 0.12,-21.29 0.12,-31.94 z"
         id="path58" />
    </g>
  </g>
</svg>
